# xmcd
#
# Track frame offsets: 
#        150
#        25819
#        43120
#        60321
#        78447
#        94117
#        115722
#        141110
#        158223
#        177369
#        190433
#
# Disc length: 2746 seconds
#
# Revision: 0
# Processed by: cddbd v1.5.2PL0 Copyright (c) Steve Scherf et al.
# Submitted via: ExactAudioCopy v0.95b4
#
DISCID=8b0ab80b
DTITLE=Johnny Forlorn - Another Round, Please
DYEAR=2006
DGENRE=Folk
TTITLE0=Long Dusty Road
TTITLE1=Somebody Else
TTITLE2=Ride On
TTITLE3=My Poor Troubles
TTITLE4=Your Letter Arrived
TTITLE5=When Sorrow's Your Friend
TTITLE6=Wicked Game
TTITLE7=A Song For Angie
TTITLE8=Missing You Again
TTITLE9=The Winds Whispered Your Name
TTITLE10=Hometown
EXTD=
EXTT0=
EXTT1=
EXTT2=
EXTT3=
EXTT4=
EXTT5=
EXTT6=
EXTT7=
EXTT8=
EXTT9=
EXTT10=
PLAYORDER=
